<svg width="214" height="174" viewBox="0 0 214 174" fill="none" xmlns="http://www.w3.org/2000/svg">
<g clip-path="url(#clip0_1124_256)">
<path d="M151.613 67.4024C155.693 67.4024 159 64.081 159 59.9839C159 55.8868 155.693 52.5654 151.613 52.5654C147.533 52.5654 144.225 55.8868 144.225 59.9839C144.225 64.081 147.533 67.4024 151.613 67.4024Z" fill="url(#paint0_linear_1124_256)"/>
<path fill-rule="evenodd" clip-rule="evenodd" d="M56 36.8804C56 16.5119 72.4425 0 92.7254 0H120.165C140.448 0 156.891 16.5119 156.891 36.8804C156.891 38.1231 155.968 39.1454 154.875 39.7272C154.817 39.7578 154.759 39.7894 154.702 39.8218L130.612 53.5012C126.086 56.071 126.028 62.5975 130.507 65.2483L154.349 79.3599C155.683 80.1497 156.897 81.4201 156.775 82.9708C155.279 101.961 139.46 116.903 120.165 116.903H92.7255C72.4426 116.903 56 100.392 56 80.0229V36.8804ZM122.544 19.4877C120.212 19.4877 118.323 21.3857 118.323 23.7268V23.8682C118.323 26.2094 120.212 28.1073 122.544 28.1073H135C137.331 28.1073 139.221 26.2094 139.221 23.8681V23.7268C139.221 21.3857 137.331 19.4877 135 19.4877H122.544Z" fill="url(#paint1_linear_1124_256)"/>
</g>
<path d="M22.6069 144H28.0149V171.328H22.6069V144ZM13.7109 152.672V144.64H19.0229V170.048H2.83088V144.64H8.14288V152.672H13.7109ZM8.14288 165.088H13.7109V157.6H8.14288V165.088ZM132.924 153.632V158.688H127.932V144.128H132.924V148.576H135.196V144H140.252V159.68H135.196V153.632H132.924ZM126.652 157.152C125.02 157.824 122.108 158.144 119.804 158.144H113.532V144.16H118.684V153.664H120.284C122.428 153.664 124.988 153.344 126.652 152.736V157.152ZM127.676 159.616C134.844 159.616 140.508 161.216 140.508 165.632C140.508 170.048 134.844 171.648 127.676 171.648C120.508 171.648 114.844 170.048 114.844 165.632C114.844 161.216 120.508 159.616 127.676 159.616ZM127.676 167.36C131.548 167.36 134.748 166.912 134.748 165.632C134.748 164.384 131.548 163.904 127.676 163.904C123.804 163.904 120.604 164.384 120.604 165.632C120.604 166.912 123.804 167.36 127.676 167.36Z" fill="white"/>
<path d="M53.6121 144H59.0201V171.328H53.6121V169.632H46.6361V165.056H53.6121V144ZM42.0601 157.824C37.1001 157.824 33.6441 155.136 33.6441 151.072C33.6441 147.008 37.1001 144.32 42.0601 144.32C46.9881 144.32 50.4441 147.008 50.4441 151.072C50.4441 155.136 46.9881 157.824 42.0601 157.824ZM42.0601 148.576C40.1081 148.576 38.7961 149.568 38.7961 151.072C38.7961 152.576 40.1081 153.568 42.0601 153.568C44.0121 153.568 45.2921 152.576 45.2921 151.072C45.2921 149.568 44.0121 148.576 42.0601 148.576ZM52.0441 162.752C50.3481 163.488 47.5961 163.744 44.8761 163.744H44.2681V171.328H38.8601V163.744H32.3961V159.04H44.9721C47.5001 159.04 50.3481 158.784 52.0441 158.048V162.752ZM84.3934 144H89.8014V171.328H84.3934V169.632H77.4174V165.056H84.3934V144ZM79.9774 157.76L72.8094 154.496C70.7294 156.512 67.7534 157.792 64.1374 157.856V153.216C67.0494 153.024 69.1614 151.36 70.1534 149.216H64.5854V144.64H81.1294V149.216H75.8494C75.7534 149.696 75.5934 150.176 75.4014 150.656L82.1534 153.472L79.9774 157.76ZM82.8254 162.752C81.1294 163.488 78.3774 163.744 75.6574 163.744H75.0494V171.328H69.6414V163.744H63.1774V159.04H75.7534C78.2814 159.04 81.1294 158.784 82.8254 158.048V162.752ZM100.903 144.8L99.4306 162.24H95.4626L93.9906 144.8H100.903ZM97.4466 164.576C99.3986 164.576 100.839 166.016 100.839 167.968C100.839 169.92 99.3986 171.328 97.4466 171.328C95.4946 171.328 94.0546 169.92 94.0546 167.968C94.0546 166.016 95.4946 164.576 97.4466 164.576ZM169.498 148.192H172.698V153.344H169.498V159.04H164.09V144H169.498V148.192ZM153.562 154.368C151.45 156.896 148.122 158.784 144.154 158.88V154.144C147.674 153.952 150.01 151.392 150.554 148.8H144.538V144.32H161.946V148.8H156.026C155.994 149.312 155.866 149.824 155.738 150.336L162.906 154.304L160.378 158.304L153.562 154.368ZM157.434 159.424C164.314 159.424 169.754 160.992 169.754 165.536C169.754 170.08 164.314 171.648 157.434 171.648C150.554 171.648 145.114 170.08 145.114 165.536C145.114 160.992 150.554 159.424 157.434 159.424ZM157.434 167.328C161.05 167.328 163.93 166.848 163.93 165.536C163.93 164.256 161.05 163.744 157.434 163.744C153.818 163.744 150.938 164.256 150.938 165.536C150.938 166.848 153.818 167.328 157.434 167.328ZM195.127 162.656V149.664H176.055V144.64H200.759V162.656H195.127ZM189.111 165.312H202.263V170.368H174.615V165.312H183.511V154.624H189.111V165.312ZM212.34 144.8L210.868 162.24H206.9L205.428 144.8H212.34ZM208.884 164.576C210.836 164.576 212.276 166.016 212.276 167.968C212.276 169.92 210.836 171.328 208.884 171.328C206.932 171.328 205.492 169.92 205.492 167.968C205.492 166.016 206.932 164.576 208.884 164.576Z" fill="#ECF6EA"/>
<defs>
<linearGradient id="paint0_linear_1124_256" x1="151.613" y1="52.5654" x2="151.613" y2="67.4024" gradientUnits="userSpaceOnUse">
<stop stop-color="white"/>
<stop offset="1" stop-color="#ECF6EA"/>
</linearGradient>
<linearGradient id="paint1_linear_1124_256" x1="106.445" y1="0" x2="106.445" y2="116.903" gradientUnits="userSpaceOnUse">
<stop stop-color="white"/>
<stop offset="1" stop-color="#ECF6EA"/>
</linearGradient>
<clipPath id="clip0_1124_256">
<rect width="103" height="117" fill="white" transform="translate(56)"/>
</clipPath>
</defs>
</svg>
