<svg width="204" height="335" viewBox="0 0 204 335" fill="none" xmlns="http://www.w3.org/2000/svg">
<path d="M14.4631 276H17.7831V293.08H14.4631V288.96H12.5231L12.7431 285.8H14.4631V282.78H12.7431L12.5231 279.62H14.4631V276ZM6.86313 276.2C10.0231 276.2 12.1031 278.72 12.1031 284.34C12.1031 289.96 10.0231 292.48 6.86313 292.48C3.70313 292.48 1.60313 289.96 1.60313 284.34C1.60313 278.72 3.70313 276.2 6.86313 276.2ZM6.86313 289.38C7.96313 289.38 8.78313 288.18 8.78313 284.34C8.78313 280.52 7.96313 279.3 6.86313 279.3C5.74313 279.3 4.92313 280.52 4.92313 284.34C4.92313 288.18 5.74313 289.38 6.86313 289.38ZM33.6414 276H37.0214V293.08H33.6414V285.44H31.1614V282.16H33.6414V276ZM24.4614 289.24H27.7214C29.3414 289.24 31.1014 288.92 32.1414 288.46V291.46C31.1014 291.98 29.1814 292.28 27.4814 292.28H21.1014V282.8H26.9814V279.44H21.0614V276.4H30.3414V285.8H24.4614V289.24ZM55.8997 276V283.58H40.6997V276H43.9997V277.28H52.5997V276H55.8997ZM43.9997 281.04H52.5997V279.76H43.9997V281.04ZM39.6597 284.56H56.9397V287.32H49.9997V289.36H46.5997V287.32H39.6597V284.56ZM44.0997 288.28V290.3H56.1397V293.08H40.6597V288.28H44.0997ZM75.458 276V293.08H72.078V276H75.458ZM64.818 276.12C67.978 276.12 70.258 278.32 70.258 281.66C70.258 285 67.978 287.2 64.818 287.2C61.638 287.2 59.358 285 59.358 281.66C59.358 278.32 61.638 276.12 64.818 276.12ZM64.818 279.14C63.458 279.14 62.618 280.22 62.618 281.66C62.618 283.12 63.458 284.18 64.818 284.18C66.158 284.18 67.018 283.12 67.018 281.66C67.018 280.22 66.158 279.14 64.818 279.14ZM71.098 291.56C70.038 292.04 68.238 292.28 66.538 292.28H58.898V289.12H66.678C68.258 289.12 70.038 288.92 71.098 288.44V291.56ZM96.1617 282.02V285.18H93.0417V276.08H96.1617V278.86H97.5817V276H100.742V285.8H97.5817V282.02H96.1617ZM92.2417 284.22C91.2217 284.64 89.4017 284.84 87.9617 284.84H84.0417V276.1H87.2617V282.04H88.2617C89.6017 282.04 91.2017 281.84 92.2417 281.46V284.22ZM92.8817 285.76C97.3617 285.76 100.902 286.76 100.902 289.52C100.902 292.28 97.3617 293.28 92.8817 293.28C88.4017 293.28 84.8617 292.28 84.8617 289.52C84.8617 286.76 88.4017 285.76 92.8817 285.76ZM92.8817 290.6C95.3017 290.6 97.3017 290.32 97.3017 289.52C97.3017 288.74 95.3017 288.44 92.8817 288.44C90.4617 288.44 88.4617 288.74 88.4617 289.52C88.4617 290.32 90.4617 290.6 92.8817 290.6ZM119.02 278.62H121.02V281.84H119.02V285.4H115.64V276H119.02V278.62ZM109.06 282.48C107.74 284.06 105.66 285.24 103.18 285.3V282.34C105.38 282.22 106.84 280.62 107.18 279H103.42V276.2H114.3V279H110.6C110.58 279.32 110.5 279.64 110.42 279.96L114.9 282.44L113.32 284.94L109.06 282.48ZM111.48 285.64C115.78 285.64 119.18 286.62 119.18 289.46C119.18 292.3 115.78 293.28 111.48 293.28C107.18 293.28 103.78 292.3 103.78 289.46C103.78 286.62 107.18 285.64 111.48 285.64ZM111.48 290.58C113.74 290.58 115.54 290.28 115.54 289.46C115.54 288.66 113.74 288.34 111.48 288.34C109.22 288.34 107.42 288.66 107.42 289.46C107.42 290.28 109.22 290.58 111.48 290.58ZM135.038 287.66V279.54H123.118V276.4H138.558V287.66H135.038ZM131.278 289.32H139.498V292.48H122.218V289.32H127.778V282.64H131.278V289.32ZM163.142 279.8H165.102V282.98H163.142V288.94H159.762V276H163.142V279.8ZM154.382 282.64V278.98H147.702V276.12H157.742V282.64H154.382ZM158.782 285.88C157.722 286.34 156.002 286.5 154.302 286.5H147.062V283.68H149.422V280.52H152.762V283.68H154.362C155.942 283.68 157.722 283.52 158.782 283.06V285.88ZM151.482 287.7V290.2H163.382V293.08H148.062V287.7H151.482ZM182.82 276V293.08H179.44V276H182.82ZM176.96 276.4V285.8H170.42V289.24H174.12C175.74 289.24 177.5 288.9 178.54 288.42V291.46C177.5 291.98 175.68 292.28 173.98 292.28H167.06V282.8H173.6V279.44H167.02V276.4H176.96ZM201.779 276V280.3H189.859V280.9H201.959V282.84H186.599V278.56H198.519V277.96H186.559V276H201.779ZM202.819 283.42V285.66H185.539V283.42H202.819ZM201.819 286.24V290.52H189.819V291.12H201.999V293.08H186.559V288.78H198.559V288.18H186.519V286.24H201.819ZM40.2192 302.46L35.6192 300.44C34.2792 301.68 32.3992 302.5 30.1792 302.54V299.82C32.5992 299.66 34.2792 297.8 34.3792 295.76L37.7392 295.96C37.7392 296.74 37.5592 297.5 37.2192 298.24L41.4592 300L40.2192 302.46ZM42.8592 296H46.2392V305.94H42.8592V296ZM42.8992 307.42V306.46H46.2392V313.08H30.9592V306.46H33.7992V305.6H29.6792V303.1H37.4592C39.0392 303.1 40.8192 302.94 41.8792 302.48V304.98C40.8192 305.44 39.0992 305.6 37.3992 305.6H37.1192V306.82H34.2992V307.42H42.8992ZM34.2992 310.68H42.8992V309.76H34.2992V310.68ZM62.7175 296H65.9175V313.08H62.7175V296ZM58.2775 302.28V296.08H61.4375V312.78H58.2775V305.48H56.2375C55.2175 310.02 52.3775 312.24 49.1575 312.28V309.12C51.7375 308.92 53.4175 306.42 53.4175 301.62V299.44H49.1575V296.4H56.6575V301.5C56.6575 301.76 56.6575 302.02 56.6375 302.28H58.2775ZM86.9013 296H90.2813V313.08H86.9013V296ZM82.0413 296.46C82.0413 299 81.8013 301.28 81.3813 303.26L86.4413 310.3L83.7013 312.26L80.1813 307.16C78.7413 310.44 76.5413 312.26 73.9213 312.28V308.8C76.6613 308.48 78.5813 303.48 78.6013 296.34L82.0413 296.46ZM111.04 298.96V302.2H109.04V306.16H105.66V296H109.04V298.96H111.04ZM98.9595 303.06C97.6395 304.7 95.6195 305.86 93.1995 305.92V302.88C95.4795 302.72 96.9195 300.94 97.2195 299.04H93.4395V296.2H104.32V299.04H100.64C100.6 299.52 100.5 300 100.36 300.46L104.96 303.32L103.22 305.78L98.9595 303.06ZM93.8795 309.66V306.76H109.04V313.28H105.6V309.66H93.8795ZM118.098 295.94V298.1H120.958V301.12H111.838V298.1H114.738V295.94H118.098ZM126.138 296H129.238V313.08H126.138V305.48H124.758V312.78H121.698V296.08H124.758V302.28H126.138V296ZM116.478 301.8C118.858 301.8 120.678 303.56 120.678 307.14C120.678 310.72 118.858 312.48 116.478 312.48C114.098 312.48 112.318 310.72 112.318 307.14C112.318 303.56 114.098 301.8 116.478 301.8ZM116.478 309.58C117.138 309.58 117.658 308.72 117.658 307.14C117.658 305.56 117.138 304.7 116.478 304.7C115.818 304.7 115.338 305.56 115.338 307.14C115.338 308.72 115.818 309.58 116.478 309.58ZM149.516 302.08V305.36H147.556V313.08H144.176V296H147.556V302.08H149.516ZM138.816 306.54V309.12C140.376 309.12 142.136 308.92 143.196 308.44V311.6C142.136 312.08 140.416 312.28 138.716 312.28H131.476V309.12H135.456V306.54H132.096V296.5H135.356V298.52H138.936V296.5H142.196V306.54H138.816ZM135.356 301.5V303.52H138.936V301.5H135.356ZM164.654 309.38H167.994V312.48H150.714V309.38H154.054V305.68C152.354 304.72 151.374 303.24 151.374 301.46C151.374 298.24 154.554 296.02 159.354 296.02C164.154 296.02 167.334 298.24 167.334 301.46C167.334 303.24 166.354 304.72 164.654 305.68V309.38ZM159.354 299.06C156.774 299.06 154.954 300 154.954 301.46C154.954 302.9 156.774 303.86 159.354 303.86C161.934 303.86 163.754 302.9 163.754 301.46C163.754 300 161.934 299.06 159.354 299.06ZM157.434 306.76V309.38H161.274V306.76C160.674 306.84 160.034 306.88 159.354 306.88C158.674 306.88 158.034 306.84 157.434 306.76ZM174.293 296.5L173.373 307.4H170.893L169.973 296.5H174.293ZM172.133 308.86C173.353 308.86 174.253 309.76 174.253 310.98C174.253 312.2 173.353 313.08 172.133 313.08C170.913 313.08 170.013 312.2 170.013 310.98C170.013 309.76 170.913 308.86 172.133 308.86ZM30.475 316H33.855V333.08H30.475V316ZM24.915 321.42V316.4H28.235V332.28H18.115V316.4H21.435V321.42H24.915ZM21.435 329.18H24.915V324.5H21.435V329.18ZM49.0133 322.02V325.18H45.8933V316.08H49.0133V318.86H50.4333V316H53.5933V325.8H50.4333V322.02H49.0133ZM45.0933 324.22C44.0733 324.64 42.2533 324.84 40.8133 324.84H36.8933V316.1H40.1133V322.04H41.1133C42.4533 322.04 44.0533 321.84 45.0933 321.46V324.22ZM45.7333 325.76C50.2133 325.76 53.7533 326.76 53.7533 329.52C53.7533 332.28 50.2133 333.28 45.7333 333.28C41.2533 333.28 37.7133 332.28 37.7133 329.52C37.7133 326.76 41.2533 325.76 45.7333 325.76ZM45.7333 330.6C48.1533 330.6 50.1533 330.32 50.1533 329.52C50.1533 328.74 48.1533 328.44 45.7333 328.44C43.3133 328.44 41.3133 328.74 41.3133 329.52C41.3133 330.32 43.3133 330.6 45.7333 330.6ZM72.3516 316V333.08H68.9716V316H72.3516ZM61.7116 316.2C64.9316 316.2 67.0716 318.72 67.0716 324.34C67.0716 329.96 64.9316 332.48 61.7116 332.48C58.4916 332.48 56.3316 329.96 56.3316 324.34C56.3316 318.72 58.4916 316.2 61.7116 316.2ZM61.7116 319.3C60.5716 319.3 59.6716 320.52 59.6716 324.34C59.6716 328.18 60.5716 329.38 61.7116 329.38C62.8316 329.38 63.7316 328.18 63.7316 324.34C63.7316 320.52 62.8316 319.3 61.7116 319.3ZM89.3153 315.72C93.7953 315.72 97.0753 316.74 97.0753 319.2C97.0753 321.66 93.7953 322.68 89.3153 322.68C84.8353 322.68 81.5553 321.66 81.5553 319.2C81.5553 316.74 84.8353 315.72 89.3153 315.72ZM89.3153 318.26C86.7753 318.26 85.1553 318.56 85.1553 319.2C85.1553 319.86 86.7753 320.14 89.3153 320.14C91.8553 320.14 93.4753 319.86 93.4753 319.2C93.4753 318.56 91.8553 318.26 89.3153 318.26ZM97.9553 323.32V325.92H80.6753V323.32H97.9553ZM89.3153 326.6C93.9153 326.6 97.1153 327.48 97.1153 329.94C97.1153 332.4 93.9153 333.28 89.3153 333.28C84.7153 333.28 81.5153 332.4 81.5153 329.94C81.5153 327.48 84.7153 326.6 89.3153 326.6ZM89.3153 329.12C86.8353 329.12 85.1153 329.34 85.1153 329.94C85.1153 330.56 86.8353 330.76 89.3153 330.76C91.7953 330.76 93.5153 330.56 93.5153 329.94C93.5153 329.34 91.7953 329.12 89.3153 329.12ZM105.994 322.78C102.914 322.78 100.754 321.62 100.754 319.3C100.754 316.98 102.914 315.82 105.994 315.82C109.074 315.82 111.234 316.98 111.234 319.3C111.234 321.62 109.074 322.78 105.994 322.78ZM108.774 326.44H113.174V316H116.554V329.26H113.174V328.78H108.774V326.44ZM105.994 318.3C104.794 318.3 104.014 318.62 104.014 319.3C104.014 319.98 104.794 320.3 105.994 320.3C107.194 320.3 107.974 319.98 107.974 319.3C107.974 318.62 107.194 318.3 105.994 318.3ZM104.654 330.26H116.794V333.08H101.274V327.66H103.994V325.96H99.9136V323.36H107.774C109.354 323.36 111.134 323.2 112.194 322.74V325.34C111.134 325.8 109.414 325.96 107.714 325.96H107.354V328.54H104.654V330.26ZM130.672 317V319.44H118.992V317H123.112V315.7H126.552V317H130.672ZM137.192 318.9V322.06H135.192V325.66H131.812V316H135.192V318.9H137.192ZM124.832 325.94C122.012 325.94 119.632 324.9 119.632 322.9C119.632 320.9 122.012 319.86 124.832 319.86C127.652 319.86 130.012 320.9 130.012 322.9C130.012 324.9 127.652 325.94 124.832 325.94ZM124.832 322.16C123.612 322.16 122.812 322.42 122.812 322.9C122.812 323.38 123.612 323.64 124.832 323.64C126.052 323.64 126.852 323.38 126.852 322.9C126.852 322.42 126.052 322.16 124.832 322.16ZM131.912 327.22V326.26H135.192V333.08H120.112V326.26H123.392V327.22H131.912ZM123.392 330.56H131.912V329.6H123.392V330.56ZM154.91 316V333.08H151.53V316H154.91ZM142.63 316.3V329.2H146.21C147.83 329.2 149.59 328.88 150.63 328.38V331.46C149.59 331.98 147.85 332.28 146.21 332.28H139.15V316.3H142.63ZM175.668 322.24V325.52H173.668V333.08H170.288V316H173.668V322.24H175.668ZM161.648 329.22H165.068C166.688 329.22 168.448 328.94 169.488 328.46V331.48C168.448 332 166.468 332.28 164.828 332.28H158.208V316.4H168.148V319.46H161.648V329.22ZM176.887 323.32C177.607 322.7 178.527 322.4 179.567 322.4C181.347 322.4 182.667 323.72 184.267 323.72C185.287 323.72 185.947 323.36 186.627 322.62V325.76C185.907 326.48 184.987 326.84 183.947 326.84C182.187 326.84 180.847 325.52 179.247 325.52C178.227 325.52 177.567 325.82 176.887 326.46V323.32Z" fill="#232323"/>
<path fill-rule="evenodd" clip-rule="evenodd" d="M38.1754 16.6751C18.7485 21.7784 7.12697 41.6256 12.2178 61.0049L23.0008 102.052C28.0918 121.432 47.9673 133.005 67.3941 127.901L93.6758 120.997C112.156 116.142 123.573 97.9457 120.259 79.5012C119.989 77.9951 118.509 77.0917 117.033 76.6761L90.6705 69.2485C85.7177 67.8535 84.1423 61.6293 87.8347 58.0456L107.49 38.9691C107.536 38.9239 107.583 38.8794 107.631 38.8357C108.533 38.0071 109.161 36.8023 108.85 35.62C103.759 16.2406 83.8836 4.66771 64.4571 9.77099L38.1754 16.6751ZM68.6225 32.8092C68.0373 30.5817 69.3731 28.3004 71.6061 27.7138L83.5362 24.5798C85.7693 23.9932 88.0537 25.3235 88.6389 27.551L88.6742 27.6854C89.2594 29.9129 87.9236 32.1942 85.6906 32.7808L73.7605 35.9148C71.5274 36.5014 69.243 35.1712 68.6578 32.9436L68.6225 32.8092ZM111.424 65.9874C115.331 64.9609 117.669 60.9687 116.645 57.0705C115.621 53.1724 111.623 50.8445 107.715 51.871C103.808 52.8976 101.47 56.8898 102.494 60.7879C103.518 64.6861 107.516 67.014 111.424 65.9874Z" fill="url(#paint0_linear_1124_257)"/>
<path fill-rule="evenodd" clip-rule="evenodd" d="M152.131 120.184C138.28 113.221 121.419 118.777 114.472 132.595L99.7576 161.863C92.8107 175.681 98.4084 192.528 112.26 199.492L131 208.913C144.177 215.538 160.077 210.833 167.575 198.463C168.187 197.453 167.792 196.174 167.15 195.18L155.68 177.421C153.525 174.085 155.791 169.677 159.758 169.488L180.876 168.479C180.926 168.476 180.976 168.475 181.026 168.474C181.971 168.455 182.95 168.078 183.374 167.235C190.321 153.417 184.723 136.569 170.871 129.606L152.131 120.184ZM161.52 145.069C162.319 143.481 164.257 142.842 165.849 143.643L174.356 147.919C175.948 148.72 176.591 150.656 175.793 152.245L175.745 152.341C174.946 153.929 173.008 154.567 171.416 153.767L162.909 149.49C161.317 148.69 160.674 146.754 161.472 145.165L161.52 145.069ZM169.36 186.129C172.146 187.53 175.537 186.412 176.935 183.632C178.332 180.853 177.206 177.464 174.42 176.063C171.634 174.663 168.242 175.78 166.845 178.56C165.447 181.339 166.573 184.728 169.36 186.129Z" fill="url(#paint1_linear_1124_257)"/>
<defs>
<linearGradient id="paint0_linear_1124_257" x1="51.316" y1="13.2231" x2="80.5347" y2="124.449" gradientUnits="userSpaceOnUse">
<stop stop-color="#8EC96D"/>
<stop offset="1" stop-color="#AFE491"/>
</linearGradient>
<linearGradient id="paint1_linear_1124_257" x1="161.501" y1="124.895" x2="121.63" y2="204.203" gradientUnits="userSpaceOnUse">
<stop stop-color="#8EC96D"/>
<stop offset="1" stop-color="#AFE491"/>
</linearGradient>
</defs>
</svg>
