<svg width="940" height="1206" viewBox="0 0 940 1206" fill="none" xmlns="http://www.w3.org/2000/svg">
<rect x="42" y="754" width="23" height="23" fill="#E5E5E5"/>
<rect x="898" y="414" width="23" height="23" fill="#E5E5E5"/>
<rect x="363" width="23" height="23" fill="#8EC96D" fill-opacity="0.5"/>
<rect x="832" y="175" width="18" height="18" fill="#E5E5E5"/>
<rect x="773" y="1185" width="18" height="18" fill="#8EC96D" fill-opacity="0.5"/>
<rect x="850" y="1038" width="18" height="18" fill="#E5E5E5"/>
<path fill-rule="evenodd" clip-rule="evenodd" d="M921 1020C923.761 1020 926 1017.76 926 1015L926 1006H935C937.761 1006 940 1003.76 940 1001V997C940 994.239 937.761 992 935 992L926 992L926 983C926 980.239 923.761 978 921 978H917C914.239 978 912 980.239 912 983L912 992L903 992C900.239 992 898 994.239 898 997V1001C898 1003.76 900.239 1006 903 1006H912L912 1015C912 1017.76 914.239 1020 917 1020H921Z" fill="#E5E5E5"/>
<path fill-rule="evenodd" clip-rule="evenodd" d="M112 292C114.761 292 117 289.761 117 287L117 278H126C128.761 278 131 275.761 131 273V269C131 266.239 128.761 264 126 264L117 264L117 255C117 252.239 114.761 250 112 250H108C105.239 250 103 252.239 103 255L103 264L94 264C91.2386 264 89 266.239 89 269V273C89 275.761 91.2386 278 94 278H103L103 287C103 289.761 105.239 292 108 292H112Z" fill="#E5E5E5"/>
<path fill-rule="evenodd" clip-rule="evenodd" d="M621 76C623.761 76 626 73.7614 626 71L626 62H635C637.761 62 640 59.7614 640 57V53C640 50.2386 637.761 48 635 48L626 48L626 39C626 36.2386 623.761 34 621 34H617C614.239 34 612 36.2386 612 39L612 48L603 48C600.239 48 598 50.2386 598 53V57C598 59.7614 600.239 62 603 62H612L612 71C612 73.7614 614.239 76 617 76H621Z" fill="#8EC96D" fill-opacity="0.5"/>
<rect x="212" y="1141" width="23" height="23" fill="#8EC96D" fill-opacity="0.5"/>
<path fill-rule="evenodd" clip-rule="evenodd" d="M133 1206C135.761 1206 138 1203.76 138 1201L138 1192H147C149.761 1192 152 1189.76 152 1187V1183C152 1180.24 149.761 1178 147 1178L138 1178L138 1169C138 1166.24 135.761 1164 133 1164H129C126.239 1164 124 1166.24 124 1169L124 1178L115 1178C112.239 1178 110 1180.24 110 1183V1187C110 1189.76 112.239 1192 115 1192H124L124 1201C124 1203.76 126.239 1206 129 1206H133Z" fill="#E5E5E5"/>
<path fill-rule="evenodd" clip-rule="evenodd" d="M23 682C25.7614 682 28 679.761 28 677L28 668H37C39.7614 668 42 665.761 42 663V659C42 656.239 39.7614 654 37 654L28 654L28 645C28 642.239 25.7614 640 23 640H19C16.2386 640 14 642.239 14 645L14 654L5 654C2.23858 654 0 656.239 0 659V663C0 665.761 2.23858 668 5 668H14L14 677C14 679.761 16.2386 682 19 682H23Z" fill="#E5E5E5"/>
</svg>
