<svg width="175" height="71" viewBox="0 0 175 71" fill="none" xmlns="http://www.w3.org/2000/svg">
<path fill-rule="evenodd" clip-rule="evenodd" d="M22.2066 0C9.94221 0 -3.20736e-05 10.0283 -3.20736e-05 22.3989V48.6011C-3.20736e-05 60.9717 9.94226 71 22.2066 71H38.7985C50.4655 71 60.0309 61.9251 60.9353 50.3914C61.009 49.4496 60.2752 48.678 59.4681 48.1984L45.0519 39.6278C42.3434 38.018 42.3787 34.0541 45.1152 32.4934L59.682 24.1854C59.7164 24.1656 59.7512 24.1465 59.7861 24.1279C60.4472 23.7745 61.0052 23.1537 61.0052 22.3989C61.0052 10.0283 51.0627 0 38.7985 0H22.2066ZM37.6844 14.4102C37.6844 12.9883 38.8271 11.8357 40.2369 11.8357H47.7685C49.1782 11.8357 50.321 12.9883 50.321 14.4102V14.4961C50.321 15.918 49.1782 17.0706 47.7685 17.0706H40.2369C38.8271 17.0706 37.6844 15.918 37.6844 14.4961V14.4102ZM57.8138 40.936C60.2808 40.936 62.2807 38.9188 62.2807 36.4305C62.2807 33.9421 60.2808 31.9249 57.8138 31.9249C55.3468 31.9249 53.347 33.9421 53.347 36.4305C53.347 38.9188 55.3468 40.936 57.8138 40.936Z" fill="url(#paint0_linear_57_132)"/>
<path d="M94.808 5H100.216V32.328H94.808V5ZM85.912 13.672V5.64H91.224V31.048H75.032V5.64H80.344V13.672H85.912ZM80.344 26.088H85.912V18.6H80.344V26.088ZM93.688 49.632V54.688H88.696V40.128H93.688V44.576H95.96V40H101.016V55.68H95.96V49.632H93.688ZM87.416 53.152C85.784 53.824 82.872 54.144 80.568 54.144H74.296V40.16H79.448V49.664H81.048C83.192 49.664 85.752 49.344 87.416 48.736V53.152ZM88.44 55.616C95.608 55.616 101.272 57.216 101.272 61.632C101.272 66.048 95.608 67.648 88.44 67.648C81.272 67.648 75.608 66.048 75.608 61.632C75.608 57.216 81.272 55.616 88.44 55.616ZM88.44 63.36C92.312 63.36 95.512 62.912 95.512 61.632C95.512 60.384 92.312 59.904 88.44 59.904C84.568 59.904 81.368 60.384 81.368 61.632C81.368 62.912 84.568 63.36 88.44 63.36Z" fill="#77C04D"/>
<path d="M125.813 5H131.221V32.328H125.813V30.632H118.837V26.056H125.813V5ZM114.261 18.824C109.301 18.824 105.845 16.136 105.845 12.072C105.845 8.008 109.301 5.32 114.261 5.32C119.189 5.32 122.645 8.008 122.645 12.072C122.645 16.136 119.189 18.824 114.261 18.824ZM114.261 9.576C112.309 9.576 110.997 10.568 110.997 12.072C110.997 13.576 112.309 14.568 114.261 14.568C116.213 14.568 117.493 13.576 117.493 12.072C117.493 10.568 116.213 9.576 114.261 9.576ZM124.245 23.752C122.549 24.488 119.797 24.744 117.077 24.744H116.469V32.328H111.061V24.744H104.597V20.04H117.173C119.701 20.04 122.549 19.784 124.245 19.048V23.752ZM156.595 5H162.003V32.328H156.595V30.632H149.619V26.056H156.595V5ZM152.179 18.76L145.011 15.496C142.931 17.512 139.955 18.792 136.339 18.856V14.216C139.251 14.024 141.363 12.36 142.355 10.216H136.787V5.64H153.331V10.216H148.051C147.955 10.696 147.795 11.176 147.603 11.656L154.355 14.472L152.179 18.76ZM155.027 23.752C153.331 24.488 150.579 24.744 147.859 24.744H147.251V32.328H141.843V24.744H135.379V20.04H147.955C150.483 20.04 153.331 19.784 155.027 19.048V23.752ZM173.104 5.8L171.632 23.24H167.664L166.192 5.8H173.104ZM169.648 25.576C171.6 25.576 173.04 27.016 173.04 28.968C173.04 30.92 171.6 32.328 169.648 32.328C167.696 32.328 166.256 30.92 166.256 28.968C166.256 27.016 167.696 25.576 169.648 25.576ZM130.261 44.192H133.461V49.344H130.261V55.04H124.853V40H130.261V44.192ZM114.325 50.368C112.213 52.896 108.885 54.784 104.917 54.88V50.144C108.437 49.952 110.773 47.392 111.317 44.8H105.301V40.32H122.709V44.8H116.789C116.757 45.312 116.629 45.824 116.501 46.336L123.669 50.304L121.141 54.304L114.325 50.368ZM118.197 55.424C125.077 55.424 130.517 56.992 130.517 61.536C130.517 66.08 125.077 67.648 118.197 67.648C111.317 67.648 105.877 66.08 105.877 61.536C105.877 56.992 111.317 55.424 118.197 55.424ZM118.197 63.328C121.813 63.328 124.693 62.848 124.693 61.536C124.693 60.256 121.813 59.744 118.197 59.744C114.581 59.744 111.701 60.256 111.701 61.536C111.701 62.848 114.581 63.328 118.197 63.328ZM155.891 58.656V45.664H136.819V40.64H161.523V58.656H155.891ZM149.875 61.312H163.027V66.368H135.379V61.312H144.275V50.624H149.875V61.312ZM173.104 40.8L171.632 58.24H167.664L166.192 40.8H173.104ZM169.648 60.576C171.6 60.576 173.04 62.016 173.04 63.968C173.04 65.92 171.6 67.328 169.648 67.328C167.696 67.328 166.256 65.92 166.256 63.968C166.256 62.016 167.696 60.576 169.648 60.576Z" fill="#8EC96D"/>
<defs>
<linearGradient id="paint0_linear_57_132" x1="-0.000157335" y1="-9.28051e-09" x2="-0.000157335" y2="71" gradientUnits="userSpaceOnUse">
<stop stop-color="#8EC96D"/>
<stop offset="1" stop-color="#AFE491"/>
</linearGradient>
</defs>
</svg>
